<mxfile host="app.diagrams.net" modified="2023-06-07T10:03:45.463Z" agent="Mozilla/5.0 (Windows NT 10.0; Win64; x64) AppleWebKit/537.36 (KHTML, like Gecko) Chrome/113.0.0.0 Safari/537.36" etag="9r44Twz4CplvroryBvIC" version="21.3.7" type="device">
  <diagram name="Page-1" id="vqZU3Ig6ejNdXnIxCsbT">
    <mxGraphModel dx="339" dy="182" grid="1" gridSize="10" guides="1" tooltips="1" connect="1" arrows="1" fold="1" page="1" pageScale="1" pageWidth="1654" pageHeight="1169" math="0" shadow="0">
      <root>
        <mxCell id="0" />
        <mxCell id="1" parent="0" />
        <mxCell id="N9QI36okf9jG95WwwUNE-1" value="" style="rounded=0;whiteSpace=wrap;html=1;fontSize=14;fontFamily=UGent Panno Text;" vertex="1" parent="1">
          <mxGeometry x="280" y="200" width="80" height="40" as="geometry" />
        </mxCell>
        <mxCell id="N9QI36okf9jG95WwwUNE-4" value="&lt;font style=&quot;font-size: 14px;&quot;&gt;Gain&lt;/font&gt;" style="rounded=0;whiteSpace=wrap;html=1;strokeColor=default;fontFamily=UGent Panno Text;fontSize=14;fontColor=default;fillColor=default;" vertex="1" parent="1">
          <mxGeometry x="440" y="200" width="80" height="40" as="geometry" />
        </mxCell>
        <mxCell id="N9QI36okf9jG95WwwUNE-5" value="Filter" style="rounded=0;whiteSpace=wrap;html=1;strokeColor=default;fontFamily=UGent Panno Text;fontSize=14;fontColor=default;fillColor=default;" vertex="1" parent="1">
          <mxGeometry x="440" y="260" width="80" height="40" as="geometry" />
        </mxCell>
        <mxCell id="N9QI36okf9jG95WwwUNE-6" value="Modulator" style="rounded=0;whiteSpace=wrap;html=1;strokeColor=default;fontFamily=UGent Panno Text;fontSize=14;fontColor=default;fillColor=default;" vertex="1" parent="1">
          <mxGeometry x="440" y="320" width="80" height="40" as="geometry" />
        </mxCell>
        <mxCell id="N9QI36okf9jG95WwwUNE-7" value="" style="endArrow=classic;html=1;rounded=0;fontFamily=UGent Panno Text;fontSize=14;fontColor=default;exitX=1;exitY=0.5;exitDx=0;exitDy=0;" edge="1" parent="1" source="N9QI36okf9jG95WwwUNE-4">
          <mxGeometry width="50" height="50" relative="1" as="geometry">
            <mxPoint x="530" y="260" as="sourcePoint" />
            <mxPoint x="560" y="220" as="targetPoint" />
          </mxGeometry>
        </mxCell>
        <mxCell id="N9QI36okf9jG95WwwUNE-8" value="" style="endArrow=classic;html=1;rounded=0;fontFamily=UGent Panno Text;fontSize=14;fontColor=default;exitX=1;exitY=0.5;exitDx=0;exitDy=0;" edge="1" parent="1">
          <mxGeometry width="50" height="50" relative="1" as="geometry">
            <mxPoint x="520" y="279.83" as="sourcePoint" />
            <mxPoint x="560" y="279.83" as="targetPoint" />
          </mxGeometry>
        </mxCell>
        <mxCell id="N9QI36okf9jG95WwwUNE-9" value="" style="endArrow=classic;html=1;rounded=0;fontFamily=UGent Panno Text;fontSize=14;fontColor=default;exitX=1;exitY=0.5;exitDx=0;exitDy=0;" edge="1" parent="1">
          <mxGeometry width="50" height="50" relative="1" as="geometry">
            <mxPoint x="520" y="339.83" as="sourcePoint" />
            <mxPoint x="560" y="339.83" as="targetPoint" />
          </mxGeometry>
        </mxCell>
        <mxCell id="N9QI36okf9jG95WwwUNE-10" value="b" style="text;html=1;strokeColor=none;fillColor=none;align=center;verticalAlign=middle;whiteSpace=wrap;rounded=0;fontSize=14;fontFamily=UGent Panno Text;fontColor=default;" vertex="1" parent="1">
          <mxGeometry x="570" y="210" width="20" height="20" as="geometry" />
        </mxCell>
        <mxCell id="N9QI36okf9jG95WwwUNE-11" value="c" style="text;html=1;strokeColor=none;fillColor=none;align=center;verticalAlign=middle;whiteSpace=wrap;rounded=0;fontSize=14;fontFamily=UGent Panno Text;fontColor=default;" vertex="1" parent="1">
          <mxGeometry x="570" y="270" width="20" height="20" as="geometry" />
        </mxCell>
        <mxCell id="N9QI36okf9jG95WwwUNE-12" value="d" style="text;html=1;strokeColor=none;fillColor=none;align=center;verticalAlign=middle;whiteSpace=wrap;rounded=0;fontSize=14;fontFamily=UGent Panno Text;fontColor=default;" vertex="1" parent="1">
          <mxGeometry x="570" y="330" width="20" height="20" as="geometry" />
        </mxCell>
        <mxCell id="N9QI36okf9jG95WwwUNE-13" value="" style="endArrow=classic;html=1;rounded=0;fontFamily=UGent Panno Text;fontSize=14;fontColor=default;exitX=1;exitY=0.5;exitDx=0;exitDy=0;entryX=0;entryY=0.5;entryDx=0;entryDy=0;" edge="1" parent="1" source="N9QI36okf9jG95WwwUNE-1" target="N9QI36okf9jG95WwwUNE-4">
          <mxGeometry width="50" height="50" relative="1" as="geometry">
            <mxPoint x="400" y="300" as="sourcePoint" />
            <mxPoint x="450" y="250" as="targetPoint" />
          </mxGeometry>
        </mxCell>
        <mxCell id="N9QI36okf9jG95WwwUNE-14" value="0.33&lt;br&gt;" style="text;html=1;strokeColor=none;fillColor=none;align=center;verticalAlign=middle;whiteSpace=wrap;rounded=0;fontSize=14;fontFamily=UGent Panno Text;fontColor=default;" vertex="1" parent="1">
          <mxGeometry x="410" y="190" width="30" height="30" as="geometry" />
        </mxCell>
        <mxCell id="N9QI36okf9jG95WwwUNE-15" value="" style="endArrow=none;html=1;rounded=0;fontFamily=UGent Panno Text;fontSize=14;fontColor=default;endFill=0;" edge="1" parent="1">
          <mxGeometry width="50" height="50" relative="1" as="geometry">
            <mxPoint x="380" y="220" as="sourcePoint" />
            <mxPoint x="400" y="280" as="targetPoint" />
            <Array as="points">
              <mxPoint x="380" y="280" />
            </Array>
          </mxGeometry>
        </mxCell>
        <mxCell id="N9QI36okf9jG95WwwUNE-17" value="" style="endArrow=classic;html=1;rounded=0;fontFamily=UGent Panno Text;fontSize=14;fontColor=default;entryX=0;entryY=0.5;entryDx=0;entryDy=0;" edge="1" parent="1" target="N9QI36okf9jG95WwwUNE-5">
          <mxGeometry width="50" height="50" relative="1" as="geometry">
            <mxPoint x="400" y="280" as="sourcePoint" />
            <mxPoint x="420" y="310" as="targetPoint" />
          </mxGeometry>
        </mxCell>
        <mxCell id="N9QI36okf9jG95WwwUNE-18" value="" style="endArrow=classic;html=1;rounded=0;fontFamily=UGent Panno Text;fontSize=14;fontColor=default;entryX=0;entryY=0.5;entryDx=0;entryDy=0;" edge="1" parent="1" target="N9QI36okf9jG95WwwUNE-6">
          <mxGeometry width="50" height="50" relative="1" as="geometry">
            <mxPoint x="380" y="280" as="sourcePoint" />
            <mxPoint x="470" y="350" as="targetPoint" />
            <Array as="points">
              <mxPoint x="380" y="340" />
            </Array>
          </mxGeometry>
        </mxCell>
        <mxCell id="N9QI36okf9jG95WwwUNE-20" value="0.33" style="text;html=1;strokeColor=none;fillColor=none;align=center;verticalAlign=middle;whiteSpace=wrap;rounded=0;fontSize=14;fontFamily=UGent Panno Text;fontColor=default;" vertex="1" parent="1">
          <mxGeometry x="410" y="250" width="30" height="30" as="geometry" />
        </mxCell>
        <mxCell id="N9QI36okf9jG95WwwUNE-21" value="0.33" style="text;html=1;strokeColor=none;fillColor=none;align=center;verticalAlign=middle;whiteSpace=wrap;rounded=0;fontSize=14;fontFamily=UGent Panno Text;fontColor=default;" vertex="1" parent="1">
          <mxGeometry x="410" y="340" width="30" height="30" as="geometry" />
        </mxCell>
        <mxCell id="N9QI36okf9jG95WwwUNE-22" value="Laser source" style="text;html=1;strokeColor=none;fillColor=none;align=center;verticalAlign=middle;whiteSpace=wrap;rounded=0;fontSize=14;fontFamily=UGent Panno Text;fontColor=default;" vertex="1" parent="1">
          <mxGeometry x="280" y="205" width="80" height="30" as="geometry" />
        </mxCell>
      </root>
    </mxGraphModel>
  </diagram>
</mxfile>
